# Blender v2.72 (sub 0) OBJ File: 'laptop.blend'
# www.blender.org
mtllib laptop.mtl
o Laptop_Cube
v 0.951052 -0.124575 -0.933687
v 0.951052 -0.124575 0.933687
v -0.427332 -0.124575 0.933687
v -0.427332 -0.124575 -0.933688
v 1.000000 0.124575 -1.000000
v 0.999999 0.124575 1.000001
v -0.476281 0.124575 1.000000
v -0.476280 0.124575 -1.000000
v -1.060165 1.527583 -1.000000
v -1.060165 1.527583 1.000000
v -0.521315 0.153158 1.000000
v -0.521316 0.153158 -1.000000
v -1.268909 1.377426 -0.913831
v -1.268909 1.377425 0.913832
v -0.776492 0.121433 0.913831
v -0.776492 0.121433 -0.913831
v -1.030119 1.450946 -0.888481
v -1.030119 1.450946 0.888481
v -0.551361 0.229795 0.888481
v -0.551362 0.229795 -0.888481
v -1.087815 1.428326 -0.888481
v -1.087815 1.428326 0.888481
v -0.609057 0.207175 0.888481
v -0.609057 0.207175 -0.888481
v 0.520973 0.124575 -0.843618
v 0.520972 0.124575 0.843619
v -0.342885 0.124575 0.843619
v -0.342885 0.124575 -0.843619
v 0.520973 0.092078 -0.843618
v 0.520972 0.092078 0.843619
v -0.342885 0.092078 0.843619
v -0.342885 0.092078 -0.843619
v 0.468262 0.092078 -0.740666
v 0.468261 0.092078 0.740667
v -0.290174 0.092078 0.740666
v -0.290174 0.092078 -0.740666
v 0.468262 0.124614 -0.740666
v 0.468261 0.124614 0.740667
v -0.290174 0.124614 0.740666
v -0.290174 0.124614 -0.740666
v 1.000000 -0.084817 -1.000000
v 1.000000 -0.084817 1.000000
v -0.476280 -0.084817 1.000000
v -0.476280 -0.084817 -1.000000
v -1.251632 1.452518 -1.000000
v -1.251632 1.452517 1.000000
v -0.712783 0.078092 1.000000
v -0.712783 0.078092 -1.000000
vt 0.324393 0.014343
vt 0.613455 0.014343
vt 0.613455 0.418249
vt 0.000000 0.000000
vt 0.028264 0.033825
vt 0.028264 0.398767
vt 0.319214 0.432592
vt 0.362668 0.432592
vt 0.362668 0.865184
vt 0.935999 0.751906
vt 0.891532 0.751906
vt 0.891532 0.432592
vt 0.407117 0.432592
vt 0.324393 0.418249
vt 0.622391 0.432592
vt 0.309509 0.432592
vt 0.309509 0.865184
vt 0.292251 0.841063
vt 0.631979 0.413954
vt 0.631979 0.018638
vt 0.901593 0.018638
vt 0.917428 0.432592
vt 0.901593 0.413954
vt 0.917428 0.000000
vt 0.449780 0.432592
vt 0.461691 0.451230
vt 0.461691 0.846546
vt 0.935999 0.432592
vt 0.979672 0.432592
vt 0.979672 0.751906
vt 0.973957 0.000000
vt 0.986504 0.000000
vt 0.986504 0.384350
vt 0.292251 0.456713
vt 0.017258 0.456713
vt 0.000000 0.865184
vt 0.017258 0.841063
vt 0.000000 0.432592
vt 0.979672 0.716296
vt 0.992832 0.716296
vt 0.992832 1.000000
vt 0.992832 0.432592
vt 0.961101 0.000000
vt 0.973957 0.384350
vt 0.993248 0.000000
vt 0.993248 0.364943
vt 0.312799 0.000000
vt 0.211301 0.033825
vt 0.312799 0.432592
vt 0.211301 0.398767
vt 0.622391 0.797535
vt 0.633559 0.454861
vt 0.853966 0.751906
vt 0.860867 0.751906
vt 0.860867 0.938755
vt 0.847065 0.938755
vt 0.847065 0.751906
vt 0.312316 0.432592
vt 0.319214 0.797535
vt 0.999739 0.752998
vt 0.992833 0.752998
vt 0.805427 0.432592
vt 0.794259 0.454860
vt 0.633559 0.775267
vt 0.794259 0.775267
vt 0.805427 0.797535
vt 0.461691 0.752998
vt 0.461691 0.432592
vt 0.874686 0.915952
vt 0.867777 0.915952
vt 0.867777 0.751906
vt 0.860867 0.915952
vt 1.000000 0.320406
vt 0.993248 0.320406
vt 0.622391 0.000000
vt 0.847065 0.865184
vt 0.805427 0.865184
vt 0.961101 0.319314
vt 0.917428 0.319314
vt 0.449780 0.865184
vt 0.407117 0.865184
vt 0.319214 0.865184
vt 0.979672 1.000000
vt 0.961101 0.384350
vt 0.986504 0.364943
vt 0.853966 0.938755
vt 0.312316 0.797535
vt 0.999739 0.432592
vt 0.622391 0.752998
vt 0.874686 0.751906
vt 1.000000 0.000000
vt 0.847065 0.432592
vn 0.000000 -1.000000 -0.000000
vn 0.000000 1.000000 0.000000
vn 1.000000 -0.000000 0.000000
vn -0.000000 -0.000000 1.000000
vn -1.000000 -0.000000 -0.000000
vn 0.000000 -0.857700 -0.514200
vn 0.931000 0.365000 -0.000000
vn -0.931000 -0.365000 -0.000000
vn -0.974500 0.224200 0.000000
vn -0.831100 -0.325800 0.450600
vn -0.562500 -0.826800 -0.000000
vn -0.000000 -0.000000 -1.000000
vn -0.365000 0.931000 0.000000
vn 0.365000 -0.931000 0.000000
vn 0.630500 -0.776200 0.000000
vn -0.000000 -0.857700 0.514200
vn -0.630500 -0.776200 -0.000000
vn -0.831100 -0.325800 -0.450600
usemtl Material
s off
f 2/1/1 3/2/1 4/3/1
f 7/4/2 27/5/2 28/6/2
f 41/7/3 5/8/3 6/9/3
f 42/10/4 6/11/4 7/12/4
f 7/9/5 8/8/5 44/13/5
f 1/14/6 4/3/6 44/15/6
f 11/16/7 12/17/7 20/18/7
f 16/19/8 15/20/8 14/21/8
f 45/22/9 13/23/9 14/21/9
f 46/24/10 14/21/10 15/20/10
f 47/25/11 15/26/11 16/27/11
f 45/28/12 9/29/12 12/30/12
f 20/31/13 24/32/13 23/33/13
f 11/16/7 19/34/7 18/35/7
f 9/36/7 17/37/7 20/18/7
f 10/38/7 18/35/7 17/37/7
f 19/39/12 23/40/12 22/41/12
f 20/42/4 17/40/4 21/39/4
f 18/43/14 22/31/14 21/44/14
f 27/32/3 31/45/3 32/46/3
f 6/47/2 26/48/2 27/5/2
f 5/49/2 8/38/2 28/6/2
f 5/49/2 25/50/2 26/48/2
f 32/51/2 31/15/2 35/52/2
f 26/53/12 30/54/12 31/55/12
f 25/56/4 28/57/4 32/53/4
f 25/58/5 29/7/5 30/59/5
f 35/60/5 39/61/5 40/42/5
f 30/62/2 34/63/2 35/52/2
f 32/51/2 36/64/2 33/65/2
f 29/66/2 33/65/2 34/63/2
f 40/67/2 39/68/2 38/15/2
f 34/69/4 38/70/4 39/71/4
f 36/70/12 40/72/12 37/54/12
f 33/73/3 37/74/3 38/45/3
f 1/14/15 41/49/15 42/47/15
f 2/1/16 42/47/16 43/75/16
f 43/75/17 44/15/17 4/3/17
f 41/12/12 44/11/12 8/57/12
f 9/76/13 45/77/13 46/62/13
f 10/78/4 46/79/4 47/24/4
f 47/25/14 48/80/14 12/81/14
f 13/23/18 45/22/18 48/15/18
f 1/14/1 2/1/1 4/3/1
f 8/38/2 7/4/2 28/6/2
f 42/82/3 41/7/3 6/9/3
f 43/28/4 42/10/4 7/12/4
f 43/81/5 7/9/5 44/13/5
f 41/49/6 1/14/6 44/15/6
f 19/34/7 11/16/7 20/18/7
f 13/23/8 16/19/8 14/21/8
f 46/24/9 45/22/9 14/21/9
f 47/75/10 46/24/10 15/20/10
f 48/80/11 47/25/11 16/27/11
f 48/10/12 45/28/12 12/30/12
f 19/44/13 20/31/13 23/33/13
f 10/38/7 11/16/7 18/35/7
f 12/17/7 9/36/7 20/18/7
f 9/36/7 10/38/7 17/37/7
f 18/83/12 19/39/12 22/41/12
f 24/29/4 20/42/4 21/39/4
f 17/84/14 18/43/14 21/44/14
f 28/85/3 27/32/3 32/46/3
f 7/4/2 6/47/2 27/5/2
f 25/50/2 5/49/2 28/6/2
f 6/47/2 5/49/2 26/48/2
f 36/64/2 32/51/2 35/52/2
f 27/86/12 26/53/12 31/55/12
f 29/86/4 25/56/4 32/53/4
f 26/87/5 25/58/5 30/59/5
f 36/88/5 35/60/5 40/42/5
f 31/15/2 30/62/2 35/52/2
f 29/66/2 32/51/2 33/65/2
f 30/62/2 29/66/2 34/63/2
f 37/89/2 40/67/2 38/15/2
f 35/90/4 34/69/4 39/71/4
f 33/71/12 36/70/12 37/54/12
f 34/91/3 33/73/3 38/45/3
f 2/1/15 1/14/15 42/47/15
f 3/2/16 2/1/16 43/75/16
f 3/2/17 43/75/17 4/3/17
f 5/92/12 41/12/12 8/57/12
f 10/92/13 9/76/13 46/62/13
f 11/43/4 10/78/4 47/24/4
f 11/13/14 47/25/14 12/81/14
f 16/19/18 13/23/18 48/15/18
