# Blender v2.72 (sub 0) OBJ File: 'laptop.blend'
# www.blender.org
mtllib room.mtl
o MockRoom_Cube.001
v -1.000000 -2.116117 1.000000
v -1.000000 -2.116117 -1.000000
v 1.000000 -2.116117 -1.000000
v 1.000000 -2.116117 1.000000
v -1.000000 -0.116117 1.000000
v -1.000000 -0.116117 -1.000000
v 1.000000 -0.116117 -1.000000
v 1.000000 -0.116117 1.000000
v -6.688533 -2.116117 6.688533
v -6.688533 -2.116117 -6.688533
v 6.688533 -2.116117 -6.688533
v 6.688533 -2.116117 6.688533
v -0.333333 -0.116117 -1.000000
v 0.333333 -0.116117 -1.000000
v 0.333333 -2.116117 -1.000000
v -0.333333 -2.116117 -1.000000
v 0.333333 -0.116117 1.000000
v -0.333333 -0.116117 1.000000
v -0.333333 -2.116117 1.000000
v 0.333333 -2.116117 1.000000
v 2.229511 -2.116117 -6.688533
v -2.229511 -2.116117 -6.688533
v -2.229511 -2.116117 6.688533
v 2.229511 -2.116117 6.688533
v -7.302944 -2.116117 7.302944
v -7.302944 -2.116117 -7.302944
v 7.302944 -2.116117 -7.302944
v 7.302944 -2.116117 7.302944
v 2.434315 -2.116117 -7.302944
v -2.434315 -2.116117 -7.302944
v -2.434315 -2.116117 7.302944
v 2.434315 -2.116117 7.302944
v -6.688533 4.467444 6.688533
v -6.688533 4.467444 -6.688533
v 6.688533 4.467444 -6.688533
v 6.688533 4.467444 6.688533
v 2.229511 4.467444 -6.688533
v -2.229511 4.467444 -6.688533
v -2.229511 4.467444 6.688533
v 2.229511 4.467444 6.688533
v -7.302944 4.467444 7.302944
v -7.302944 4.467444 -7.302944
v 7.302944 4.467444 -7.302944
v 7.302944 4.467444 7.302944
v 2.434315 4.467444 -7.302944
v -2.434315 4.467444 -7.302944
v -2.434315 4.467444 7.302944
v 2.434315 4.467444 7.302944
v 2.229511 -2.116117 -5.820387
v -2.229511 -2.116117 -5.820387
v 2.229511 4.467444 -5.820387
v -2.229511 4.467444 -5.820387
v 2.434315 0.078403 -7.302944
v 2.434315 2.272924 -7.302944
v 7.302944 2.272924 -7.302944
v 7.302944 0.078403 -7.302944
v -5.141741 -0.616119 7.302944
v -5.141741 2.967446 7.302944
v -7.302944 2.272924 7.302944
v -7.302944 0.078403 7.302944
v 7.302944 2.272924 7.302944
v 7.302944 0.078403 7.302944
v -7.302944 2.272924 -7.302944
v -7.302944 0.078403 -7.302944
v -2.617206 -0.616119 7.302944
v -2.617206 2.967446 7.302944
v -2.434315 0.078403 -7.302944
v -2.434315 2.272924 -7.302944
v -2.229511 0.078403 -6.688533
v -2.229511 2.272924 -6.688533
v -6.688533 2.272924 -6.688533
v -6.688533 0.078403 -6.688533
v -2.723403 -0.616119 6.688533
v -2.723403 2.967446 6.688533
v 6.688533 2.272924 6.688533
v 6.688533 0.078403 6.688533
v -5.035544 -0.616119 6.688533
v -5.035544 2.967446 6.688533
v 2.229511 0.078403 -6.688533
v 2.229511 2.272924 -6.688533
v 6.688533 2.272924 -6.688533
v 6.688533 0.078403 -6.688533
v -6.688533 2.272924 6.688533
v -6.688533 0.078403 6.688533
v -2.229511 0.078403 -5.820387
v -2.229511 2.272924 -5.820387
v 2.229511 0.078403 -5.820387
v 2.229511 2.272924 -5.820387
vt 0.500325 0.727922
vt 0.500325 0.777762
vt 0.442119 0.777762
vt 0.616751 0.727922
vt 0.674964 0.727922
vt 0.674964 0.744535
vt 0.674964 0.777762
vt 0.733170 0.727922
vt 0.616751 0.777762
vt 0.597347 0.777762
vt 0.204382 0.555583
vt 0.223786 0.555583
vt 0.389360 0.697343
vt 0.539134 0.727922
vt 0.558538 0.727922
vt 0.558538 0.777762
vt 0.165573 0.505742
vt 0.165573 0.555583
vt 0.000000 0.697343
vt 0.184978 0.505742
vt 0.000000 0.363983
vt 0.223786 0.505742
vt 0.389360 0.363983
vt 0.616751 0.761149
vt 0.674964 0.761149
vt 0.616751 0.744535
vt 0.577942 0.727922
vt 0.577942 0.777762
vt 0.597347 0.727922
vt 0.184978 0.555583
vt 0.129787 0.697343
vt 0.259573 0.697343
vt 0.519729 0.727922
vt 0.519729 0.777762
vt 0.539134 0.777762
vt 0.204382 0.505742
vt 0.259573 0.363983
vt 0.129787 0.363983
vt 0.414625 0.692111
vt 0.389360 0.692111
vt 0.389360 0.637423
vt 0.680626 0.727922
vt 0.616751 0.363983
vt 0.852035 0.292167
vt 0.808375 0.222240
vt 0.808375 0.111120
vt 0.489001 0.727921
vt 0.425126 0.727922
vt 0.425126 0.363983
vt 0.680626 0.121328
vt 0.616751 0.121328
vt 0.616751 0.000000
vt 0.259573 0.752031
vt 0.552876 0.363983
vt 0.573091 0.310125
vt 0.616751 0.242655
vt 0.852035 0.234548
vt 0.808375 0.000000
vt 0.277456 0.348671
vt 0.283418 0.363983
vt 0.141709 0.363983
vt 0.407243 0.348671
vt 0.147670 0.015311
vt 0.141709 0.000000
vt 0.283418 0.000000
vt 0.017883 0.015311
vt 0.000000 0.000000
vt 0.147670 0.348671
vt 0.017883 0.348671
vt 0.277456 0.015311
vt 0.425126 0.000000
vt 0.407243 0.015311
vt 0.573091 0.247213
vt 0.936125 0.333360
vt 1.000000 0.333360
vt 1.000000 0.666680
vt 0.680626 0.242655
vt 0.872250 1.000000
vt 0.808375 1.000000
vt 0.808375 0.666680
vt 0.552876 0.000000
vt 0.680626 0.363983
vt 0.872250 0.333360
vt 0.808375 0.333360
vt 0.000000 0.752031
vt 0.129787 0.752031
vt 0.277456 0.036946
vt 0.147670 0.036946
vt 0.414625 0.528047
vt 0.389360 0.528047
vt 0.389360 0.473359
vt 0.414628 0.808463
vt 0.389360 0.808463
vt 0.808375 0.727922
vt 0.744501 0.727922
vt 0.744501 0.363983
vt 0.552876 0.727921
vt 0.489001 0.363983
vt 0.808375 0.121328
vt 0.744501 0.121328
vt 0.744501 0.000000
vt 0.680626 0.000000
vt 0.425126 0.242655
vt 0.468786 0.310125
vt 0.425126 0.121328
vt 0.468786 0.247213
vt 0.786866 0.727922
vt 0.786866 0.790834
vt 0.768983 0.788187
vt 0.808375 0.242655
vt 0.744501 0.242655
vt 0.489001 0.000000
vt 0.808375 0.363983
vt 0.414625 0.582735
vt 0.389360 0.582735
vt 0.414625 0.637423
vt 1.000000 0.111120
vt 1.000000 0.222240
vt 0.956340 0.292167
vt 0.751099 0.817225
vt 0.733170 0.817225
vt 0.259573 0.861407
vt 0.259573 0.806719
vt 0.389360 0.806719
vt 1.000000 0.000000
vt 0.956340 0.234548
vt 0.936125 0.000000
vt 0.872250 0.666680
vt 0.936125 0.666680
vt 1.000000 1.000000
vt 0.936125 1.000000
vt 0.000000 0.861407
vt 0.000000 0.806719
vt 0.129787 0.806719
vt 0.129787 0.861407
vt 0.414625 0.418671
vt 0.389360 0.418671
vt 0.414625 0.473359
vt 0.424190 0.817225
vt 0.424190 0.727922
vt 0.442119 0.727922
vt 0.768982 0.730568
vt 0.751099 0.790834
vt 0.733170 0.777762
vt 0.389360 0.752031
vt 0.872250 0.000000
vt 0.414628 0.697343
vt 0.751099 0.727922
vt 0.389360 0.861407
vt 0.414625 0.363983
vt 0.442119 0.817225
vn -1.000000 0.000000 0.000000
vn 0.000000 0.000000 -1.000000
vn 1.000000 0.000000 0.000000
vn 0.000000 0.000000 1.000000
vn 0.000000 1.000000 0.000000
vn 0.000000 -1.000000 0.000000
vn 0.985400 0.000000 0.170300
vn -0.985400 0.000000 0.170300
usemtl None
s off
f 6/1/1 2/2/1 1/3/1
f 7/4/2 3/5/2 15/6/2
f 8/7/3 4/5/3 3/8/3
f 5/4/4 1/9/4 19/10/4
f 19/11/5 1/12/5 9/13/5
f 13/14/5 6/15/5 5/16/5
f 3/17/5 4/18/5 12/19/5
f 15/20/5 3/17/5 11/21/5
f 1/12/5 2/22/5 10/23/5
f 13/24/2 16/25/2 2/7/2
f 14/26/2 15/6/2 16/25/2
f 17/27/4 20/28/4 4/16/4
f 18/29/4 19/10/4 20/28/4
f 20/30/5 24/31/5 12/19/5
f 19/11/5 23/32/5 24/31/5
f 7/1/5 14/33/5 17/34/5
f 14/33/5 13/14/5 18/35/5
f 16/36/5 22/37/5 10/23/5
f 15/20/5 21/38/5 22/37/5
f 37/39/3 51/40/3 88/41/3
f 59/42/1 41/4/1 42/43/1
f 78/44/2 39/45/2 40/46/2
f 55/47/3 43/48/3 44/49/3
f 54/50/2 45/51/2 43/52/2
f 70/53/4 38/32/4 34/13/4
f 59/54/4 58/55/4 47/56/4
f 74/57/2 40/46/2 36/58/2
f 39/59/5 47/60/5 48/61/5
f 39/59/5 33/62/5 41/49/5
f 37/63/5 45/64/5 46/65/5
f 37/63/5 35/66/5 43/67/5
f 40/68/5 48/61/5 44/21/5
f 36/69/5 44/21/5 43/67/5
f 38/70/5 46/65/5 42/71/5
f 34/72/5 42/71/5 41/49/5
f 58/55/4 66/73/4 48/51/4
f 75/74/1 36/75/1 35/76/1
f 68/77/2 46/56/2 45/51/2
f 71/78/3 34/79/3 33/80/3
f 66/73/4 61/81/4 44/52/4
f 63/82/2 42/43/2 46/56/2
f 83/83/2 33/84/2 39/45/2
f 81/85/4 35/19/4 37/31/4
f 88/86/4 51/31/4 52/32/4
f 38/70/5 52/87/5 51/88/5
f 22/89/1 50/90/1 85/91/1
f 21/92/6 49/93/6 50/13/6
f 25/94/1 60/95/1 64/96/1
f 60/95/1 59/42/1 63/82/1
f 27/4/3 56/97/3 62/54/3
f 56/97/3 55/47/3 61/98/3
f 29/99/2 53/100/2 56/101/2
f 53/100/2 54/50/2 55/102/2
f 31/103/4 57/104/4 60/98/4
f 57/104/4 58/55/4 59/54/4
f 32/105/4 65/106/4 57/104/4
f 66/107/6 58/108/6 78/109/6
f 30/110/2 67/111/2 53/100/2
f 67/111/2 68/77/2 54/50/2
f 28/71/4 62/112/4 65/106/4
f 62/112/4 61/81/4 66/73/4
f 26/113/2 64/96/2 67/111/2
f 64/96/2 63/82/2 68/77/2
f 79/114/3 87/115/3 49/90/3
f 80/116/3 88/41/3 87/115/3
f 24/117/2 23/118/2 77/119/2
f 57/120/7 77/121/7 78/8/7
f 22/122/4 69/123/4 72/124/4
f 72/124/4 69/123/4 70/53/4
f 12/125/2 24/117/2 73/126/2
f 76/127/2 73/126/2 74/57/2
f 12/84/1 76/83/1 82/128/1
f 76/83/1 75/74/1 81/129/1
f 10/130/3 72/131/3 84/129/3
f 72/131/3 71/78/3 83/128/3
f 23/118/2 9/75/2 84/74/2
f 84/74/2 83/83/2 78/44/2
f 11/132/4 82/133/4 79/134/4
f 79/134/4 82/133/4 81/85/4
f 49/135/4 87/134/4 85/123/4
f 87/134/4 88/86/4 86/53/4
f 70/136/1 86/137/1 52/23/1
f 69/138/1 85/91/1 86/137/1
f 74/139/8 73/140/8 65/141/8
f 73/142/5 77/109/5 57/143/5
f 5/141/1 6/1/1 1/3/1
f 14/26/2 7/4/2 15/6/2
f 7/144/3 8/7/3 3/8/3
f 18/29/4 5/4/4 19/10/4
f 23/32/5 19/11/5 9/13/5
f 18/35/5 13/14/5 5/16/5
f 11/21/5 3/17/5 12/19/5
f 21/38/5 15/20/5 11/21/5
f 9/13/5 1/12/5 10/23/5
f 6/9/2 13/24/2 2/7/2
f 13/24/2 14/26/2 16/25/2
f 8/15/4 17/27/4 4/16/4
f 17/27/4 18/29/4 20/28/4
f 4/18/5 20/30/5 12/19/5
f 20/30/5 19/11/5 24/31/5
f 8/2/5 7/1/5 17/34/5
f 17/34/5 14/33/5 18/35/5
f 2/22/5 16/36/5 10/23/5
f 16/36/5 15/20/5 22/37/5
f 80/116/3 37/39/3 88/41/3
f 63/82/1 59/42/1 42/43/1
f 74/57/2 78/44/2 40/46/2
f 61/98/3 55/47/3 44/49/3
f 55/102/2 54/50/2 43/52/2
f 71/145/4 70/53/4 34/13/4
f 41/43/4 59/54/4 47/56/4
f 75/146/2 74/57/2 36/58/2
f 40/68/5 39/59/5 48/61/5
f 47/60/5 39/59/5 41/49/5
f 38/70/5 37/63/5 46/65/5
f 45/64/5 37/63/5 43/67/5
f 36/69/5 40/68/5 44/21/5
f 35/66/5 36/69/5 43/67/5
f 34/72/5 38/70/5 42/71/5
f 33/62/5 34/72/5 41/49/5
f 47/56/4 58/55/4 48/51/4
f 81/129/1 75/74/1 35/76/1
f 54/50/2 68/77/2 45/51/2
f 83/128/3 71/78/3 33/80/3
f 48/51/4 66/73/4 44/52/4
f 68/77/2 63/82/2 46/56/2
f 78/44/2 83/83/2 39/45/2
f 80/86/4 81/85/4 37/31/4
f 86/53/4 88/86/4 52/32/4
f 37/63/5 38/70/5 51/88/5
f 69/138/1 22/89/1 85/91/1
f 22/147/6 21/92/6 50/13/6
f 26/113/1 25/94/1 64/96/1
f 64/96/1 60/95/1 63/82/1
f 28/43/3 27/4/3 62/54/3
f 62/54/3 56/97/3 61/98/3
f 27/58/2 29/99/2 56/101/2
f 56/101/2 53/100/2 55/102/2
f 25/49/4 31/103/4 60/98/4
f 60/98/4 57/104/4 59/54/4
f 31/103/4 32/105/4 57/104/4
f 74/142/6 66/107/6 78/109/6
f 29/99/2 30/110/2 53/100/2
f 53/100/2 67/111/2 54/50/2
f 32/105/4 28/71/4 65/106/4
f 65/106/4 62/112/4 66/73/4
f 30/110/2 26/113/2 67/111/2
f 67/111/2 64/96/2 68/77/2
f 21/89/3 79/114/3 49/90/3
f 79/114/3 80/116/3 87/115/3
f 73/126/2 24/117/2 77/119/2
f 58/148/7 57/120/7 78/8/7
f 10/149/4 22/122/4 72/124/4
f 71/145/4 72/124/4 70/53/4
f 76/127/2 12/125/2 73/126/2
f 75/146/2 76/127/2 74/57/2
f 11/80/1 12/84/1 82/128/1
f 82/128/1 76/83/1 81/129/1
f 9/76/3 10/130/3 84/129/3
f 84/129/3 72/131/3 83/128/3
f 77/119/2 23/118/2 84/74/2
f 77/119/2 84/74/2 78/44/2
f 21/135/4 11/132/4 79/134/4
f 80/86/4 79/134/4 81/85/4
f 50/122/4 49/135/4 85/123/4
f 85/123/4 87/134/4 86/53/4
f 38/150/1 70/136/1 52/23/1
f 70/136/1 69/138/1 86/137/1
f 66/151/8 74/139/8 65/141/8
f 65/148/5 73/142/5 57/143/5
