# Blender v2.72 (sub 0) OBJ File: 'laptop.blend'
# www.blender.org
mtllib room.mtl
o Cube_Cube.003
v -7.500000 -6.000000 7.600000
v -7.500000 -6.000000 -24.600000
v 7.500000 -6.000000 -24.600000
v 7.500000 -6.000000 7.600000
v -7.500000 -2.000000 7.600000
v -7.500000 -2.000000 -24.600000
v 7.500000 -2.000000 -24.600000
v 7.500000 -2.000000 7.600000
v -7.500000 -7.000000 7.600000
v -7.500000 -7.000000 -24.600000
v 7.500000 -7.000000 -24.600000
v 7.500000 -7.000000 7.600000
v -17.500000 -6.000000 7.600000
v -17.500000 -6.000000 -24.600000
v -17.500000 -7.000000 7.600000
v -17.500000 -7.000000 -24.600000
v -18.500000 -6.000000 7.600000
v -18.500000 -6.000000 -24.600000
v -18.500000 -7.000000 7.600000
v -18.500000 -7.000000 -24.600000
v -17.500000 8.000000 7.600000
v -17.500000 8.000000 -24.600000
v -18.500000 8.000000 7.600000
v -18.500000 8.000000 -24.600000
v 8.500000 -6.000000 -24.600000
v 8.500000 -6.000000 7.600000
v 8.500000 -2.000000 -24.600000
v 8.500000 -2.000000 7.600000
v 8.500000 -7.000000 -24.600000
v 8.500000 -7.000000 7.600000
v 7.500000 8.000000 -24.600000
v 7.500000 8.000000 7.600000
v 8.500000 8.000000 -24.600000
v 8.500000 8.000000 7.600000
v 7.500000 9.000000 -24.600000
v 7.500000 9.000000 7.600000
v 8.500000 9.000000 -24.600000
v 8.500000 9.000000 7.600000
v -17.500000 9.000000 7.600000
v -17.500000 9.000000 -24.600000
v -18.500000 9.000000 7.600000
v -18.500000 9.000000 -24.600000
v -8.000000 9.000000 7.600000
v -8.000000 8.000000 -24.600000
v -8.000000 9.000000 -24.600000
v -8.000000 8.000000 7.600000
v -7.500000 -7.000000 -23.526667
v -7.500000 -7.000000 6.526667
v 7.500000 -7.000000 6.526667
v 7.500000 -7.000000 -23.526667
v -17.500000 -7.000000 -23.526667
v -17.500000 -7.000000 6.526667
v -18.500000 -6.000000 -23.526667
v -18.500000 -6.000000 6.526667
v -18.500000 -7.000000 -23.526667
v -18.500000 -7.000000 6.526667
v -18.500000 8.000000 -23.526667
v -18.500000 8.000000 6.526667
v 8.500000 -2.000000 -23.526667
v 8.500000 -2.000000 6.526667
v 8.500000 -6.000000 6.526667
v 8.500000 -6.000000 -23.526667
v 8.500000 -7.000000 6.526667
v 8.500000 -7.000000 -23.526667
v 8.500000 8.000000 -23.526667
v 8.500000 8.000000 6.526667
v 7.500000 9.000000 -23.526667
v 7.500000 9.000000 6.526667
v 8.500000 9.000000 -23.526667
v 8.500000 9.000000 6.526667
v -17.500000 9.000000 -23.526667
v -17.500000 9.000000 6.526667
v -18.500000 9.000000 -23.526667
v -18.500000 9.000000 6.526667
v -8.000000 9.000000 -23.526667
v -8.000000 9.000000 6.526667
v -7.500000 -2.000000 6.526667
v -7.500000 -2.000000 -23.526667
v -7.500000 -6.000000 -23.526667
v -7.500000 -6.000000 6.526667
v 7.500000 -2.000000 -23.526667
v 7.500000 -2.000000 6.526667
v -17.500000 -6.000000 -23.526667
v -17.500000 -6.000000 6.526667
v -17.500000 8.000000 -23.526667
v -17.500000 8.000000 6.526667
v 7.500000 8.000000 -23.526667
v 7.500000 8.000000 6.526667
v -8.000000 8.000000 6.526667
v -8.000000 8.000000 -23.526667
v -6.750000 -2.750000 0.750000
v -6.750000 -2.750000 -0.750000
v -5.250000 -2.750000 -0.750000
v -5.250000 -2.750000 0.750000
v -6.750000 8.750000 0.750000
v -6.750000 8.750000 -0.750000
v -5.250000 8.750000 -0.750000
v -5.250000 8.750000 0.750000
v -6.750000 -2.750000 -17.250000
v -6.750000 -2.750000 -18.750000
v -5.250000 -2.750000 -18.750000
v -5.250000 -2.750000 -17.250000
v -6.750000 8.750000 -17.250000
v -6.750000 8.750000 -18.750000
v -5.250000 8.750000 -18.750000
v -5.250000 8.750000 -17.250000
v -6.750000 -2.750000 -8.250000
v -6.750000 -2.750000 -9.750000
v -5.250000 -2.750000 -9.750000
v -5.250000 -2.750000 -8.250000
v -6.750000 8.750000 -8.250000
v -6.750000 8.750000 -9.750000
v -5.250000 8.750000 -9.750000
v -5.250000 8.750000 -8.250000
v -7.500000 -6.000000 31.750000
v -7.500000 -6.000000 -48.750000
v -7.500000 -7.000000 31.750000
v -7.500000 -7.000000 -48.750000
v -17.500000 -6.000000 31.750000
v -17.500000 -6.000000 -48.750000
v -17.500000 -7.000000 31.750000
v -17.500000 -7.000000 -48.750000
v -18.500000 -6.000000 31.750000
v -18.500000 -6.000000 -48.750000
v -18.500000 -7.000000 31.750000
v -18.500000 -7.000000 -48.750000
v -17.500000 8.000000 31.750000
v -17.500000 8.000000 -48.750000
v -18.500000 8.000000 31.750000
v -18.500000 8.000000 -48.750000
v -17.500000 9.000000 31.750000
v -17.500000 9.000000 -48.750000
v -18.500000 9.000000 31.750000
v -18.500000 9.000000 -48.750000
v -8.000000 9.000000 31.750000
v -8.000000 8.000000 -48.750000
v -8.000000 9.000000 -48.750000
v -8.000000 8.000000 31.750000
v -1.000000 -2.000000 1.000000
v -1.000000 -2.000000 -1.000000
v 1.000000 -2.000000 -1.000000
v 1.000000 -2.000000 1.000000
v -1.000000 0.000000 1.000000
v -1.000000 0.000000 -1.000000
v 1.000000 0.000000 -1.000000
v 1.000000 0.000000 1.000000
vt 0.218504 0.714286
vt 0.252117 0.714286
vt 0.252117 0.723809
vt 0.504217 0.851819
vt 0.470604 0.851819
vt 0.470604 0.718722
vt 0.731108 0.851819
vt 0.731108 0.860692
vt 0.722705 0.860692
vt 0.689091 0.718722
vt 0.722705 0.718722
vt 0.722705 0.851819
vt 0.731108 0.718722
vt 0.588251 0.714286
vt 0.588251 0.851819
vt 0.134454 0.500000
vt 0.008403 0.500000
vt 0.008403 0.490476
vt 0.470604 0.860692
vt 0.462201 0.860692
vt 0.462201 0.851819
vt 0.462201 0.718722
vt 0.764722 0.714286
vt 0.764722 0.928571
vt 0.756319 0.928571
vt 0.915966 0.214286
vt 0.915966 0.000000
vt 1.000000 0.000000
vt 0.663866 0.214286
vt 0.663866 0.000000
vt 0.672269 0.000000
vt 0.134454 0.214286
vt 0.218488 0.214286
vt 0.218488 0.223810
vt 1.000000 0.214286
vt 1.000000 0.223809
vt 0.789916 0.214286
vt 0.798319 0.214286
vt 0.798319 0.223809
vt 0.134454 0.000000
vt 0.218488 0.000000
vt 0.226891 0.214286
vt 0.226891 0.223810
vt 0.453782 0.214286
vt 0.453782 0.000000
vt 0.533614 0.000000
vt 0.731108 0.928571
vt 0.731108 0.714286
vt 0.739512 0.714286
vt 0.445378 0.214286
vt 0.445378 0.000000
vt 0.789916 0.500000
vt 0.672269 0.500000
vt 0.672269 0.490476
vt 0.915966 0.500000
vt 0.798319 0.500000
vt 0.798319 0.490476
vt 0.092437 0.714286
vt 0.126051 0.714286
vt 0.126051 0.723809
vt 0.134454 0.714286
vt 0.134454 0.723809
vt 0.000000 0.500000
vt 0.000000 0.490476
vt 0.689092 0.860692
vt 0.588251 0.860692
vt 0.504217 0.860692
vt 0.596654 0.851819
vt 0.596654 0.860692
vt 0.605058 0.860692
vt 0.605058 0.851819
vt 0.092437 1.000000
vt 0.008403 1.000000
vt 0.008403 0.990476
vt 0.689092 0.851819
vt 0.605058 0.714286
vt 0.235294 0.500000
vt 0.226891 0.500000
vt 0.226891 0.490476
vt 0.000000 1.000000
vt 0.000000 0.990476
vt 0.798319 0.000000
vt 0.453782 0.223809
vt 0.798319 0.714286
vt 0.789916 0.714286
vt 0.663866 0.500000
vt 0.663866 0.490476
vt 0.747915 0.714286
vt 0.747915 0.928571
vt 0.739512 0.928571
vt 0.533614 0.500000
vt 0.453782 0.500000
vt 0.453782 0.490476
vt 0.365547 0.214286
vt 0.445378 0.223809
vt 0.596654 0.714286
vt 0.462201 0.998225
vt 0.546234 0.860692
vt 0.235294 0.214286
vt 0.365547 0.223809
vt 0.134454 0.223809
vt 0.008403 0.223809
vt 0.008403 0.214286
vt 0.134454 0.490476
vt 0.218488 0.490476
vt 0.218488 0.500000
vt 0.789916 0.490476
vt 0.789916 0.223809
vt 0.672269 0.223809
vt 0.672269 0.214286
vt 0.092437 0.990476
vt 0.126051 0.990476
vt 0.126051 1.000000
vt 0.092437 0.723809
vt 0.134454 0.990476
vt 0.134454 1.000000
vt 0.000000 0.223809
vt 0.008403 0.723809
vt 0.008403 0.714286
vt 0.235294 0.223809
vt 0.235294 0.490476
vt 0.000000 0.723809
vt 0.000000 0.714286
vt 0.445379 0.490476
vt 0.663866 0.223809
vt 0.365547 0.490476
vt 0.445379 0.500000
vt 0.365547 0.500000
vt 0.218504 0.990476
vt 0.252117 0.990476
vt 0.252117 1.000000
vt 0.218504 0.723809
vt 0.218504 1.000000
vt 0.378167 0.980952
vt 0.252117 0.980952
vt 0.915966 0.490476
vt 1.000000 0.490476
vt 1.000000 0.500000
vt 0.915966 0.223809
vt 0.462201 0.980952
vt 0.378168 0.714286
vt 0.533614 0.223810
vt 0.533614 0.490476
vt 0.630268 0.865129
vt 0.630268 0.998225
vt 0.680688 0.860692
vt 0.680688 0.962732
vt 0.668083 0.962732
vt 0.764722 0.816326
vt 0.777327 0.714286
vt 0.630268 0.962733
vt 0.630268 0.860692
vt 0.642873 0.860692
vt 0.789932 0.816326
vt 0.777327 0.816326
vt 0.781529 0.931677
vt 0.781529 0.918367
vt 0.794134 0.918367
vt 0.760520 0.928571
vt 0.760520 0.941881
vt 0.747915 0.941881
vt 0.705898 0.860692
vt 0.705898 0.962732
vt 0.693293 0.962732
vt 0.903361 0.816327
vt 0.903361 0.918367
vt 0.890756 0.918367
vt 0.668083 0.860692
vt 0.655478 0.962733
vt 0.789932 0.918367
vt 0.777327 0.918367
vt 0.693293 0.860692
vt 0.890756 0.816327
vt 0.890756 0.714286
vt 0.903361 0.714286
vt 0.642873 0.962733
vt 0.655478 0.860692
vt 0.764722 0.918367
vt 0.882353 0.714286
vt 0.882353 0.723159
vt 0.890756 0.723159
vt 0.798319 0.989352
vt 0.882353 0.989352
vt 0.882353 0.998226
vt 0.890756 0.989352
vt 0.890756 0.998226
vt 0.882353 0.865129
vt 0.890756 0.865129
vt 0.882353 0.856256
vt 0.890756 0.856256
vt 0.890756 0.847383
vt 0.882353 0.847382
vt 0.802521 0.856256
vt 0.802521 0.847382
vt 0.226891 0.714286
vt 0.365546 0.000000
vt 0.789916 0.000000
vt 0.915966 0.714286
vt 0.453782 0.714286
vt 0.445379 0.714286
vt 0.672269 0.714286
vt 1.000000 0.714286
vt 0.365547 0.714286
vt 0.756319 0.714286
vt 0.226891 0.000000
vt 0.533614 0.714286
vt 0.663866 0.714286
vt 0.747915 0.946318
vt 0.722705 0.878438
vt 0.705898 0.913931
vt 0.705898 0.896184
vt 0.722705 0.896184
vt 0.781529 0.936113
vt 0.764722 0.936113
vt 0.722705 0.913931
vt 0.722705 0.931677
vt 0.705898 0.931677
vt 0.504217 0.718722
vt 0.533614 0.214286
vt 0.546234 0.993789
vt 0.000000 0.214286
vt 0.462200 0.714286
vt 0.546234 0.998225
vt 0.794134 0.931677
vt 0.798319 0.723159
vt 0.798319 0.998226
vt 0.802521 0.865129
vt 0.731108 0.946318
vt 0.705898 0.878438
vn -1.000000 0.000000 0.000000
vn 0.000000 0.000000 -1.000000
vn 0.000000 0.000000 1.000000
vn 0.000000 -1.000000 0.000000
vn 1.000000 0.000000 0.000000
vn 0.000000 1.000000 0.000000
vn -0.998800 -0.049900 0.000000
usemtl None
s off
f 6/1/1 2/2/1 79/3/1
f 7/4/2 3/5/2 2/6/2
f 12/7/3 30/8/3 26/9/3
f 5/10/3 1/11/3 4/12/3
f 1/11/3 9/13/3 12/7/3
f 44/14/2 31/15/2 7/4/2
f 10/16/4 11/17/4 50/18/4
f 3/5/2 25/19/2 29/20/2
f 3/5/2 11/21/2 10/22/2
f 43/23/5 135/24/5 138/25/5
f 2/26/6 116/27/6 120/28/6
f 42/29/1 134/30/1 130/31/1
f 9/32/4 15/33/4 52/34/4
f 2/26/6 14/35/6 83/36/6
f 18/37/1 20/38/1 55/39/1
f 9/32/4 117/40/4 121/41/4
f 15/33/4 19/42/4 56/43/4
f 22/44/4 128/45/4 136/46/4
f 1/47/5 115/48/5 117/49/5
f 40/50/6 132/51/6 134/45/6
f 17/52/1 23/53/1 58/54/1
f 14/55/5 22/56/5 85/57/5
f 28/58/5 26/59/5 61/60/5
f 26/59/5 30/61/5 63/62/5
f 11/17/4 29/63/4 64/64/4
f 4/12/3 26/9/3 28/65/3
f 7/4/2 31/15/2 33/66/2
f 7/4/2 27/67/2 25/19/2
f 31/15/2 35/68/2 37/69/2
f 28/65/3 34/70/3 32/71/3
f 27/72/5 33/73/5 65/74/5
f 8/75/3 32/71/3 46/76/3
f 36/77/6 38/78/6 70/79/6
f 34/70/3 38/69/3 36/68/3
f 33/73/5 37/80/5 69/81/5
f 21/38/5 127/82/5 119/27/5
f 40/50/6 42/44/6 73/83/6
f 19/56/1 125/84/1 123/85/1
f 23/53/1 41/86/1 74/87/1
f 10/88/5 118/89/5 116/90/5
f 46/91/4 21/92/4 86/93/4
f 45/94/6 40/50/6 71/95/6
f 36/68/3 43/96/3 46/76/3
f 31/15/2 44/14/2 45/96/2
f 89/97/2 88/20/2 82/98/2
f 35/99/6 45/94/6 75/100/6
f 48/101/4 49/102/4 12/103/4
f 47/104/4 50/18/4 49/102/4
f 47/104/4 51/105/4 16/106/4
f 48/101/4 52/34/4 51/105/4
f 54/107/1 56/57/1 19/56/1
f 53/108/1 55/39/1 56/57/1
f 51/105/4 55/79/4 20/78/4
f 52/34/4 56/43/4 55/79/4
f 53/108/1 57/109/1 24/110/1
f 54/107/1 58/54/1 57/109/1
f 59/111/5 62/112/5 25/113/5
f 60/114/5 61/60/5 62/112/5
f 62/112/5 64/115/5 29/116/5
f 61/60/5 63/62/5 64/115/5
f 12/103/4 49/102/4 63/117/4
f 50/18/4 64/64/4 63/117/4
f 60/114/5 66/118/5 34/119/5
f 59/111/5 65/74/5 66/118/5
f 35/99/6 67/120/6 69/43/6
f 68/121/6 70/79/6 69/43/6
f 66/118/5 70/122/5 38/123/5
f 65/74/5 69/81/5 70/122/5
f 72/124/6 74/93/6 41/92/6
f 71/95/6 73/83/6 74/93/6
f 57/109/1 73/125/1 42/29/1
f 58/54/1 74/87/1 73/125/1
f 76/126/6 72/124/6 39/127/6
f 75/100/6 71/95/6 72/124/6
f 68/121/6 76/126/6 43/128/6
f 67/120/6 75/100/6 76/126/6
f 77/129/1 80/130/1 1/131/1
f 78/132/1 79/3/1 80/130/1
f 89/115/7 77/129/7 5/133/7
f 81/134/6 78/135/6 77/2/6
f 80/136/6 84/137/6 13/138/6
f 79/139/6 83/36/6 84/137/6
f 84/139/5 86/39/5 21/38/5
f 83/136/5 85/57/5 86/39/5
f 78/132/7 90/62/7 44/61/7
f 82/140/1 88/134/1 87/141/1
f 90/142/4 85/83/4 22/44/4
f 89/143/4 86/93/4 85/83/4
f 90/98/3 78/144/3 81/145/3
f 88/87/4 89/143/4 90/142/4
f 96/146/1 92/147/1 91/148/1
f 97/149/2 93/23/2 92/150/2
f 98/151/5 94/152/5 93/153/5
f 95/85/3 91/154/3 94/155/3
f 92/156/4 93/157/4 94/158/4
f 97/159/6 96/160/6 95/161/6
f 104/162/1 100/163/1 99/164/1
f 105/165/2 101/166/2 100/167/2
f 106/168/5 102/148/5 101/169/5
f 103/154/3 99/170/3 102/171/3
f 112/172/1 108/164/1 107/147/1
f 113/173/2 109/174/2 108/175/2
f 114/176/5 110/153/5 109/177/5
f 111/155/3 107/171/3 110/178/3
f 118/84/2 122/179/2 120/180/2
f 122/179/2 126/174/2 124/181/2
f 115/182/3 119/183/3 121/184/3
f 119/183/3 123/185/3 125/186/3
f 119/183/3 127/187/3 129/188/3
f 127/187/3 131/189/3 133/190/3
f 124/181/2 130/191/2 128/192/2
f 135/193/3 131/189/3 127/187/3
f 130/191/2 134/190/2 132/189/2
f 136/194/2 128/192/2 132/189/2
f 20/78/4 126/195/4 122/1/4
f 45/94/6 137/196/6 132/51/6
f 18/37/1 124/197/1 126/82/1
f 14/55/5 120/198/5 128/84/5
f 41/92/6 133/199/6 131/200/6
f 17/52/1 123/85/1 129/201/1
f 13/138/6 119/202/6 115/198/6
f 39/127/6 131/200/6 135/203/6
f 16/106/4 122/1/4 118/61/4
f 44/204/5 136/25/5 137/89/5
f 15/33/4 121/41/4 125/205/4
f 46/91/4 138/206/4 127/199/4
f 23/53/1 129/201/1 133/207/1
f 24/110/1 130/31/1 124/197/1
f 144/47/1 140/89/1 139/208/1
f 145/162/2 141/9/2 140/209/2
f 146/210/5 142/211/5 141/212/5
f 143/209/3 139/212/3 142/211/3
f 140/213/4 141/214/4 142/178/4
f 145/215/6 144/216/6 143/217/6
f 78/132/1 6/1/1 79/3/1
f 6/218/2 7/4/2 2/6/2
f 4/12/3 12/7/3 26/9/3
f 8/75/3 5/10/3 4/12/3
f 4/12/3 1/11/3 12/7/3
f 6/218/2 44/14/2 7/4/2
f 47/104/4 10/16/4 50/18/4
f 11/21/2 3/5/2 29/20/2
f 2/6/2 3/5/2 10/22/2
f 46/204/5 43/23/5 138/25/5
f 14/35/6 2/26/6 120/28/6
f 24/110/1 42/29/1 130/31/1
f 48/101/4 9/32/4 52/34/4
f 79/139/6 2/26/6 83/36/6
f 53/108/1 18/37/1 55/39/1
f 15/33/4 9/32/4 121/41/4
f 52/34/4 15/33/4 56/43/4
f 44/219/4 22/44/4 136/46/4
f 9/90/5 1/47/5 117/49/5
f 42/44/6 40/50/6 134/45/6
f 54/107/1 17/52/1 58/54/1
f 83/136/5 14/55/5 85/57/5
f 60/114/5 28/58/5 61/60/5
f 61/60/5 26/59/5 63/62/5
f 50/18/4 11/17/4 64/64/4
f 8/75/3 4/12/3 28/65/3
f 27/67/2 7/4/2 33/66/2
f 3/5/2 7/4/2 25/19/2
f 33/66/2 31/15/2 37/69/2
f 8/75/3 28/65/3 32/71/3
f 59/111/5 27/72/5 65/74/5
f 5/10/3 8/75/3 46/76/3
f 68/121/6 36/77/6 70/79/6
f 32/71/3 34/70/3 36/68/3
f 65/74/5 33/73/5 69/81/5
f 13/26/5 21/38/5 119/27/5
f 71/95/6 40/50/6 73/83/6
f 17/52/1 19/56/1 123/85/1
f 58/54/1 23/53/1 74/87/1
f 2/49/5 10/88/5 116/90/5
f 89/143/4 46/91/4 86/93/4
f 75/100/6 45/94/6 71/95/6
f 32/71/3 36/68/3 46/76/3
f 35/68/2 31/15/2 45/96/2
f 77/220/2 89/97/2 82/98/2
f 67/120/6 35/99/6 75/100/6
f 9/32/4 48/101/4 12/103/4
f 48/101/4 47/104/4 49/102/4
f 10/16/4 47/104/4 16/106/4
f 47/104/4 48/101/4 51/105/4
f 17/52/1 54/107/1 19/56/1
f 54/107/1 53/108/1 56/57/1
f 16/106/4 51/105/4 20/78/4
f 51/105/4 52/34/4 55/79/4
f 18/37/1 53/108/1 24/110/1
f 53/108/1 54/107/1 57/109/1
f 27/72/5 59/111/5 25/113/5
f 59/111/5 60/114/5 62/112/5
f 25/113/5 62/112/5 29/116/5
f 62/112/5 61/60/5 64/115/5
f 30/221/4 12/103/4 63/117/4
f 49/102/4 50/18/4 63/117/4
f 28/58/5 60/114/5 34/119/5
f 60/114/5 59/111/5 66/118/5
f 37/42/6 35/99/6 69/43/6
f 67/120/6 68/121/6 69/43/6
f 34/119/5 66/118/5 38/123/5
f 66/118/5 65/74/5 70/122/5
f 39/127/6 72/124/6 41/92/6
f 72/124/6 71/95/6 74/93/6
f 24/110/1 57/109/1 42/29/1
f 57/109/1 58/54/1 73/125/1
f 43/128/6 76/126/6 39/127/6
f 76/126/6 75/100/6 72/124/6
f 36/77/6 68/121/6 43/128/6
f 68/121/6 67/120/6 76/126/6
f 5/133/1 77/129/1 1/131/1
f 77/129/1 78/132/1 80/130/1
f 46/116/7 89/115/7 5/133/7
f 82/141/6 81/134/6 77/2/6
f 1/55/6 80/136/6 13/138/6
f 80/136/6 79/139/6 84/137/6
f 13/26/5 84/139/5 21/38/5
f 84/139/5 83/136/5 86/39/5
f 6/1/7 78/132/7 44/61/7
f 81/222/1 82/140/1 87/141/1
f 44/219/4 90/142/4 22/44/4
f 90/142/4 89/143/4 85/83/4
f 87/223/3 90/98/3 81/145/3
f 87/125/4 88/87/4 90/142/4
f 95/168/1 96/146/1 91/148/1
f 96/155/2 97/149/2 92/150/2
f 97/176/5 98/151/5 93/153/5
f 98/150/3 95/85/3 94/155/3
f 91/224/4 92/156/4 94/158/4
f 98/89/6 97/159/6 95/161/6
f 103/172/1 104/162/1 99/164/1
f 104/173/2 105/165/2 100/167/2
f 105/177/5 106/168/5 101/169/5
f 106/155/3 103/154/3 102/171/3
f 111/146/1 112/172/1 107/147/1
f 112/165/2 113/173/2 108/175/2
f 113/169/5 114/176/5 109/177/5
f 114/149/3 111/155/3 110/178/3
f 116/225/2 118/84/2 120/180/2
f 120/180/2 122/179/2 124/181/2
f 117/226/3 115/182/3 121/184/3
f 121/184/3 119/183/3 125/186/3
f 123/185/3 119/183/3 129/188/3
f 129/188/3 127/187/3 133/190/3
f 120/180/2 124/181/2 128/192/2
f 138/227/3 135/193/3 127/187/3
f 128/192/2 130/191/2 132/189/2
f 137/193/2 136/194/2 132/189/2
f 16/106/4 20/78/4 122/1/4
f 40/50/6 45/94/6 132/51/6
f 20/38/1 18/37/1 126/82/1
f 22/56/5 14/55/5 128/84/5
f 39/127/6 41/92/6 131/200/6
f 23/53/1 17/52/1 129/201/1
f 1/55/6 13/138/6 115/198/6
f 43/128/6 39/127/6 135/203/6
f 10/16/4 16/106/4 118/61/4
f 45/88/5 44/204/5 137/89/5
f 19/42/4 15/33/4 125/205/4
f 21/92/4 46/91/4 127/199/4
f 41/86/1 23/53/1 133/207/1
f 18/37/1 24/110/1 124/197/1
f 143/228/1 144/47/1 139/208/1
f 144/229/2 145/162/2 140/209/2
f 145/215/5 146/210/5 141/212/5
f 146/229/3 143/209/3 142/211/3
f 139/157/4 140/213/4 142/178/4
f 146/210/6 145/215/6 143/217/6
